<svg width="512" height="512" viewBox="0 0 512 512" fill="none" xmlns="http://www.w3.org/2000/svg">
<g clip-path="url(#clip0_88_41)">
<path d="M256 256C281.316 256 306.064 248.493 327.113 234.428C348.163 220.363 364.569 200.372 374.257 176.984C383.945 153.595 386.479 127.858 381.541 103.029C376.602 78.1989 364.411 55.3915 346.51 37.4904C328.609 19.5893 305.801 7.39845 280.972 2.45954C256.142 -2.47937 230.405 0.0554606 207.017 9.74348C183.628 19.4315 163.637 35.8376 149.572 56.8871C135.507 77.9366 128 102.684 128 128C128.034 161.937 141.53 194.475 165.528 218.472C189.525 242.47 222.063 255.966 256 256ZM256 42.6667C272.877 42.6667 289.376 47.6714 303.409 57.048C317.442 66.4245 328.379 79.7518 334.838 95.3444C341.296 110.937 342.986 128.095 339.694 144.648C336.401 161.201 328.274 176.406 316.34 188.34C304.406 200.274 289.201 208.401 272.648 211.694C256.095 214.986 238.937 213.296 223.344 206.838C207.752 200.379 194.424 189.442 185.048 175.409C175.671 161.376 170.667 144.877 170.667 128C170.667 105.368 179.657 83.6634 195.66 67.6603C211.663 51.6572 233.368 42.6667 256 42.6667Z" fill="black"/>
<path d="M256 299C205.096 299.056 156.293 319.303 120.298 355.298C84.3031 391.293 64.0565 440.096 64 491C64 496.658 66.2476 502.084 70.2484 506.085C74.2492 510.086 79.6754 512.333 85.3333 512.333C90.9913 512.333 96.4175 510.086 100.418 506.085C104.419 502.084 106.667 496.658 106.667 491C106.667 451.394 122.4 413.411 150.405 385.405C178.411 357.4 216.394 341.667 256 341.667C295.606 341.667 333.589 357.4 361.595 385.405C389.6 413.411 405.333 451.394 405.333 491C405.333 496.658 407.581 502.084 411.582 506.085C415.583 510.086 421.009 512.333 426.667 512.333C432.325 512.333 437.751 510.086 441.752 506.085C445.752 502.084 448 496.658 448 491C447.944 440.096 427.697 391.293 391.702 355.298C355.707 319.303 306.904 299.056 256 299Z" fill="black"/>
</g>
<defs>
<clipPath id="clip0_88_41">
<rect width="512" height="512" fill="white"/>
</clipPath>
</defs>
</svg>
